<svg width="24" height="24" viewBox="0 0 24 24" fill="none" xmlns="http://www.w3.org/2000/svg">
    <circle cx="12" cy="12" r="12" fill="url(#paint0_linear_50_148)" />
    <path d="M14.5661 12.0089L5.00089 11.0453L5 4.95407C5.00012 4.79141 5.04179 4.63147 5.12106 4.48944C5.20034 4.3474 5.31458 4.22798 5.45297 4.14249C5.59135 4.057 5.74928 4.00829 5.91178 4.00097C6.07427 3.99365 6.23594 4.02796 6.38145 4.10066L20.4733 11.1466C20.6316 11.226 20.7647 11.3479 20.8577 11.4986C20.9507 11.6493 21 11.8229 21 12C21 12.1771 20.9507 12.3507 20.8577 12.5014C20.7647 12.6521 20.6316 12.774 20.4733 12.8534L6.38323 19.8993C6.23772 19.972 6.07605 20.0064 5.91355 19.999C5.75106 19.9917 5.59313 19.943 5.45475 19.8575C5.31636 19.772 5.20211 19.6526 5.12284 19.5106C5.04357 19.3685 5.00189 19.2086 5.00178 19.0459V12.9547L14.567 12.0089H14.5661Z" fill="white" />
    <defs>
        <linearGradient id="paint0_linear_50_148" x1="0.666667" y1="0.807692" x2="28.5337" y2="15.2554" gradientUnits="userSpaceOnUse">
            <stop stop-color="#FD02AE" />
            <stop offset="1" stop-color="#ED1739" />
        </linearGradient>
    </defs>
</svg>
    